<?xml version="1.0" encoding="UTF-8" standalone="no"?>
<svg
   viewBox="0 0 24 24"
   version="1.1"
   id="svg1"
   xmlns="http://www.w3.org/2000/svg"
   xmlns:svg="http://www.w3.org/2000/svg">
  <path
     d="m 13.834735,10.069848 c -0.0073,1.278141 -2.031636,1.123456 -2.654832,1.100486 l 0.01772,-2.2482405 c 0.644995,0.027945 2.639924,-0.1910481 2.637112,1.1477545 m -2.651725,2.252567 -0.01179,2.483538 c 0.763947,0.0092 3.161711,0.175748 3.169734,-1.226085 0.0132,-1.464864 -2.396367,-1.257944 -3.157944,-1.257453 M 21.996973,12.052033 C 21.96535,17.576905 17.472291,22.028467 11.947419,21.996845 6.422548,21.965221 1.9738993,17.47145 2.0026084,11.94729 2.0342321,6.4224189 6.5282395,1.9747417 12.052162,2.0024793 c 5.515157,0.033994 9.96672,4.5270531 9.944811,10.0495537 M 13.210772,7.6384551 13.221391,5.783088 12.09348,5.800886 12.076017,7.5858777 c -0.298328,7.188e-4 -0.596656,0.00144 -0.902329,0.014239 l 0.008,-1.823852 -1.120565,0.00571 -0.01299,1.8456519 c -0.2473827,-0.00141 -0.4923952,0.00688 -0.7203472,7.28e-4 v 0 L 7.7707565,7.617019 7.7565677,8.824785 c 0,0 0.8416682,-0.00973 0.8246077,0.00472 0.4632493,2.267e-4 0.6073246,0.253292 0.647139,0.5009102 L 9.201656,14.411465 c -0.015399,0.147861 -0.1281848,0.36065 -0.4217731,0.380798 0.012085,0.0074 -0.8246082,-0.0047 -0.8246082,-0.0047 l -0.2283945,1.342362 1.4648639,0.0132 c 0.2788975,0.004 0.5480801,0.0104 0.8148929,0.007 l -0.01559,1.877167 1.1350208,0.01131 0.0082,-1.865082 c 0.310412,0.0066 0.60874,0.0059 0.899722,0.01728 l -0.01299,1.845651 1.135021,0.01131 0.01559,-1.877168 c 1.880245,-0.09838 3.22662,-0.570903 3.389604,-2.350211 0.165812,-1.429926 -0.509529,-2.088648 -1.601903,-2.347141 C 15.613826,11.1181 16.031804,10.55295 15.945291,9.5653192 15.824413,8.2258087 14.665213,7.7777515 13.210772,7.6384551 Z"
     id="path1" />
</svg>
