<?xml version="1.0" encoding="UTF-8" standalone="no"?>
<svg
   viewBox="0 0 24 24"
   version="1.1"
   id="svg1"
   sodipodi:docname="blender.svg"
   inkscape:version="1.3.2 (091e20ef0f, 2023-11-25)"
   xmlns:inkscape="http://www.inkscape.org/namespaces/inkscape"
   xmlns:sodipodi="http://sodipodi.sourceforge.net/DTD/sodipodi-0.dtd"
   xmlns="http://www.w3.org/2000/svg"
   xmlns:svg="http://www.w3.org/2000/svg">
  <defs
     id="defs1" />
  <sodipodi:namedview
     id="namedview1"
     pagecolor="#505050"
     bordercolor="#eeeeee"
     borderopacity="1"
     inkscape:showpageshadow="0"
     inkscape:pageopacity="0"
     inkscape:pagecheckerboard="0"
     inkscape:deskcolor="#505050"
     inkscape:zoom="24.277333"
     inkscape:cx="9.185523"
     inkscape:cy="15.199363"
     inkscape:window-width="1920"
     inkscape:window-height="1028"
     inkscape:window-x="0"
     inkscape:window-y="0"
     inkscape:window-maximized="1"
     inkscape:current-layer="svg1" />
  <path
     id="path2"
     d="M 9.0429688 0.93164062 L 9.0429688 1.9316406 L 4.0429688 1.9316406 C 2.9429709 1.9316406 2.0429688 2.8316428 2.0429688 3.9316406 L 2.0429688 7.9316406 C 2.0429688 9.0316385 2.9429709 9.9316406 4.0429688 9.9316406 L 6.2734375 9.9316406 L 6.9121094 14.0625 C 5.7821117 14.982498 5.0429687 16.361644 5.0429688 17.931641 L 5.0429688 18.931641 C 5.0429688 20.03164 5.9429709 20.931641 7.0429688 20.931641 L 12.560547 20.931641 A 5.7444043 5.5506458 0 0 1 12.212891 19.070312 A 5.7444043 5.5506458 0 0 1 15.294922 14.166016 C 15.254742 14.131236 15.215062 14.096077 15.173828 14.0625 L 17.042969 1.9316406 L 13.042969 1.9316406 L 13.042969 0.93164062 L 9.0429688 0.93164062 z M 4.0429688 3.9316406 L 5.3535156 3.9316406 L 5.9726562 7.9316406 L 4.0429688 7.9316406 L 4.0429688 3.9316406 z M 7.3730469 3.9316406 L 14.712891 3.9316406 L 13.332031 12.931641 L 8.7636719 12.931641 L 7.3730469 3.9316406 z M 16.957031 15.068359 L 16.957031 18.068359 L 13.957031 18.068359 L 13.957031 20.068359 L 16.957031 20.068359 L 16.957031 23.068359 L 18.957031 23.068359 L 18.957031 20.068359 L 21.957031 20.068359 L 21.957031 18.068359 L 18.957031 18.068359 L 18.957031 15.068359 L 16.957031 15.068359 z M 11.042969 15.931641 C 11.592967 15.931641 12.042969 16.381642 12.042969 16.931641 C 12.042969 17.481639 11.592967 17.931641 11.042969 17.931641 C 10.49297 17.931641 10.042969 17.481639 10.042969 16.931641 C 10.042969 16.381642 10.49297 15.931641 11.042969 15.931641 z " />
</svg>
