<?xml version="1.0" encoding="UTF-8" standalone="no"?>
<svg
   viewBox="0 0 24 24"
   version="1.1"
   id="svg1"
   sodipodi:docname="cash-right (1).svg"
   inkscape:version="1.3.2 (091e20ef0f, 2023-11-25)"
   xmlns:inkscape="http://www.inkscape.org/namespaces/inkscape"
   xmlns:sodipodi="http://sodipodi.sourceforge.net/DTD/sodipodi-0.dtd"
   xmlns="http://www.w3.org/2000/svg"
   xmlns:svg="http://www.w3.org/2000/svg">
  <defs
     id="defs1" />
  <sodipodi:namedview
     id="namedview1"
     pagecolor="#505050"
     bordercolor="#eeeeee"
     borderopacity="1"
     inkscape:showpageshadow="0"
     inkscape:pageopacity="0"
     inkscape:pagecheckerboard="0"
     inkscape:deskcolor="#505050"
     inkscape:zoom="34.333333"
     inkscape:cx="12"
     inkscape:cy="12"
     inkscape:window-width="1920"
     inkscape:window-height="1028"
     inkscape:window-x="0"
     inkscape:window-y="0"
     inkscape:window-maximized="1"
     inkscape:current-layer="svg1" />
  <path
     id="path1"
     d="m 1.780152,14.124342 v 1.078701 H 8.25236 l -2.966429,2.966428 0.765878,0.765878 4.271657,-4.271657 -4.271657,-4.271657 -0.765878,0.765877 2.966429,2.96643 z M 22.219847,5.0646508 V 17.064651 h -8.070312 l -2,-2 h 6.070312 c 0,-0.529999 0.209844,-1.040157 0.589844,-1.410156 0.369999,-0.38 0.880157,-0.589844 1.410156,-0.589844 V 9.0646512 c -0.529999,0 -1.040157,-0.2098444 -1.410156,-0.589844 -0.38,-0.3699996 -0.589844,-0.8801567 -0.589844,-1.4101563 h -10 c 0,0.5299996 -0.209844,1.0401567 -0.589844,1.4101563 -0.369999,0.3799997 -0.880157,0.589844 -1.410156,0.589844 v 0.07031 L 6.030394,8.9552728 6.020594,8.9337888 C 5.870628,8.7837917 5.259846,8.1642603 4.219847,8.1642603 V 5.0646508 Z m -9,3 c 0.799999,0 1.559141,0.3208599 2.119141,0.8808594 0.559999,0.56 0.880859,1.3191418 0.880859,2.1191408 0,0.799999 -0.32086,1.559141 -0.880859,2.119141 -0.56,0.559999 -1.319142,0.880859 -2.119141,0.880859 -0.799999,0 -1.559141,-0.32086 -2.119141,-0.880859 -0.559999,-0.56 -0.880859,-1.319142 -0.880859,-2.119141 0,-0.799999 0.32086,-1.5591408 0.880859,-2.1191408 0.56,-0.5599995 1.319142,-0.8808594 2.119141,-0.8808594 z" />
</svg>
