<?xml version="1.0" encoding="UTF-8" standalone="no"?>
<svg
   viewBox="0 0 24 24"
   version="1.1"
   id="svg1"
   sodipodi:docname="cash-right.svg"
   inkscape:version="1.3.2 (091e20ef0f, 2023-11-25)"
   xmlns:inkscape="http://www.inkscape.org/namespaces/inkscape"
   xmlns:sodipodi="http://sodipodi.sourceforge.net/DTD/sodipodi-0.dtd"
   xmlns="http://www.w3.org/2000/svg"
   xmlns:svg="http://www.w3.org/2000/svg">
  <defs
     id="defs1" />
  <sodipodi:namedview
     id="namedview1"
     pagecolor="#505050"
     bordercolor="#eeeeee"
     borderopacity="1"
     inkscape:showpageshadow="0"
     inkscape:pageopacity="0"
     inkscape:pagecheckerboard="0"
     inkscape:deskcolor="#505050"
     inkscape:zoom="34.333333"
     inkscape:cx="12"
     inkscape:cy="12"
     inkscape:window-width="1920"
     inkscape:window-height="1028"
     inkscape:window-x="0"
     inkscape:window-y="0"
     inkscape:window-maximized="1"
     inkscape:current-layer="svg1" />
  <path
     id="path1"
     d="m 13.676534,14.124342 v 1.078701 h 6.472207 l -2.966429,2.966428 0.765878,0.765878 4.271657,-4.271657 -4.271657,-4.271657 -0.765878,0.765877 2.966429,2.96643 z M 1.7801525,5.0646508 V 17.064651 h 8.0703116 l 1.9999999,-2 H 5.7801525 c 0,-0.529999 -0.2098441,-1.040157 -0.5898438,-1.410156 -0.3699996,-0.38 -0.8801567,-0.589844 -1.4101562,-0.589844 V 9.0646512 c 0.5299995,0 1.0401566,-0.2098444 1.4101562,-0.589844 C 5.5703084,8.1048076 5.7801525,7.5946505 5.7801525,7.0646509 H 15.780153 c 0,0.5299996 0.209844,1.0401567 0.589843,1.4101563 0.369999,0.3799997 0.880157,0.589844 1.410156,0.589844 v 0.07031 l 0.189453,-0.1796884 0.0098,-0.021484 C 18.129371,8.7837917 18.740153,8.1642603 19.780152,8.1642603 V 5.0646508 Z m 9.0000005,3 c -0.7999995,0 -1.559141,0.3208599 -2.119141,0.8808594 -0.559999,0.56 -0.8808594,1.3191418 -0.8808594,2.1191408 0,0.799999 0.3208604,1.559141 0.8808594,2.119141 0.56,0.559999 1.3191415,0.880859 2.119141,0.880859 0.799999,0 1.559141,-0.32086 2.11914,-0.880859 0.559999,-0.56 0.880859,-1.319142 0.880859,-2.119141 0,-0.799999 -0.32086,-1.5591408 -0.880859,-2.1191408 -0.56,-0.5599995 -1.319141,-0.8808594 -2.11914,-0.8808594 z" />
</svg>
