<?xml version="1.0" encoding="UTF-8"?>
<svg width="37.855mm" height="68.268mm" version="1.1" viewBox="0 0 37.855 68.268" xmlns="http://www.w3.org/2000/svg">
 <g transform="translate(-86.789 -64.675)">
  <path transform="translate(-149.97 -244.02)" d="m263.07 314.72 10.245-5.9048a0.86595 0.86595 30.022 0 1 1.2984 0.75027v55.374a2.5957 2.5957 120 0 1-1.2977 2.2479l-16.332 9.4306a2.5952 2.5952 6.5543e-6 0 1-2.5955 0l-16.332-9.4306a2.5957 2.5957 60.002 0 1-1.2977-2.2479v-18.862a2.5957 2.5957 120 0 1 1.2977-2.2479l16.332-9.4306a0.86513 0.86513 29.998 0 1 1.2977 0.7492v11.642a2.5959 2.5959 120 0 1-1.2977 2.248l-3.6556 2.1111a2.5959 2.5959 120 0 0-1.2977 2.248v4.2227a2.5959 2.5959 60.003 0 0 1.2977 2.248l3.6557 2.1111a2.5949 2.5949 1.9847e-5 0 0 2.5954 0l3.6557-2.1111a2.5959 2.5959 120 0 0 1.2977-2.248v-4.2227a659.54 659.54 89.87 0 0-7e-3 -2.9971l-0.15193-33.434a2.5797 2.5797 119.89 0 1 1.2915-2.2468z" fill="#008ee5" stroke-width="0"/>
 </g>
</svg>
