<?xml version="1.0" encoding="UTF-8" standalone="no"?>
<svg
   viewBox="0 0 24 24"
   version="1.1"
   id="svg1"
   xmlns="http://www.w3.org/2000/svg"
   xmlns:svg="http://www.w3.org/2000/svg">
  <path
     id="path3"
     d="M 12.052734 2.0019531 C 6.5288233 1.9742157 2.0335768 6.4224051 2.0019531 11.947266 C 1.9732442 17.471414 6.4224052 21.96447 11.947266 21.996094 C 17.472126 22.027716 21.964471 17.577596 21.996094 12.052734 C 22.018003 6.5302452 17.567881 2.0359471 12.052734 2.0019531 z M 9.2578125 6.6835938 L 14.029297 6.6835938 C 18.221369 6.6835937 18.963417 8.9714724 18.369141 12.185547 C 17.968366 14.345537 16.970177 16.000747 15.294922 16.773438 C 14.539942 17.121738 13.82502 17.316406 12.146484 17.316406 L 7.3867188 17.316406 L 7.78125 15.105469 L 11.964844 15.109375 C 14.482317 15.112655 15.154469 14.022116 15.480469 13.064453 C 15.601161 12.707625 15.885331 11.599934 15.894531 10.945312 C 15.914865 9.6682101 15.285337 8.8984375 13.166016 8.8984375 L 8.8632812 8.8925781 L 9.2578125 6.6835938 z M 7.1992188 10.890625 L 12.083984 10.890625 C 12.083984 10.890625 12.034363 11.150781 11.878906 11.796875 C 11.760182 12.289482 11.582226 13.101562 10.333984 13.101562 L 5.4492188 13.101562 C 5.4492188 13.101563 5.4988404 12.838784 5.6542969 12.195312 C 5.773021 11.703363 5.950321 10.890625 7.1992188 10.890625 z " />
</svg>
