<?xml version="1.0" encoding="UTF-8" standalone="no"?>
<svg
   viewBox="0 0 24 24"
   version="1.1"
   id="svg1"
   sodipodi:docname="graph.svg"
   inkscape:version="1.3.2 (091e20ef0f, 2023-11-25)"
   xmlns:inkscape="http://www.inkscape.org/namespaces/inkscape"
   xmlns:sodipodi="http://sodipodi.sourceforge.net/DTD/sodipodi-0.dtd"
   xmlns="http://www.w3.org/2000/svg"
   xmlns:svg="http://www.w3.org/2000/svg">
  <defs
     id="defs1">
    <inkscape:path-effect
       effect="bspline"
       id="path-effect4"
       is_visible="true"
       lpeversion="1.3"
       weight="33.333333"
       steps="2"
       helper_size="0"
       apply_no_weight="true"
       apply_with_weight="true"
       only_selected="false"
       uniform="false" />
  </defs>
  <sodipodi:namedview
     id="namedview1"
     pagecolor="#505050"
     bordercolor="#eeeeee"
     borderopacity="1"
     inkscape:showpageshadow="0"
     inkscape:pageopacity="0"
     inkscape:pagecheckerboard="0"
     inkscape:deskcolor="#505050"
     inkscape:zoom="12.137488"
     inkscape:cx="9.9691139"
     inkscape:cy="9.8043352"
     inkscape:window-width="1920"
     inkscape:window-height="1028"
     inkscape:window-x="0"
     inkscape:window-y="0"
     inkscape:window-maximized="1"
     inkscape:current-layer="svg1" />
  <path
     id="path5"
     d="M 11.5 1.75 C 10.120003 1.75 9 2.8700042 9 4.25 C 9 4.9599979 9.2897663 5.5890638 9.7597656 6.0390625 L 8.140625 9.2890625 C 8.0006253 9.2490625 7.8799997 9.25 7.75 9.25 C 6.3700042 9.25 5.25 10.370003 5.25 11.75 C 5.25 12.459997 5.5500012 13.089065 6 13.539062 L 4.390625 16.789062 C 4.2606253 16.749065 4.1299997 16.75 4 16.75 C 2.6200042 16.75 1.5 17.870003 1.5 19.25 C 1.5 20.629997 2.6200042 21.75 4 21.75 C 5.3799958 21.75 6.5 20.629997 6.5 19.25 C 6.5 18.550003 6.2102329 17.910935 5.7402344 17.460938 L 7.359375 14.210938 C 7.4993747 14.250935 7.6200003 14.25 7.75 14.25 C 7.8799997 14.25 8.0006253 14.250933 8.140625 14.210938 L 9.7695312 17.460938 C 9.2995331 17.910933 9 18.550003 9 19.25 C 9 20.629997 10.120003 21.75 11.5 21.75 C 12.278209 21.75 12.974971 21.394047 13.433594 20.835938 A 5.7444043 5.5506458 0 0 1 12.755859 18.25 A 5.7444043 5.5506458 0 0 1 12.880859 17.167969 C 12.484879 16.904607 12.010881 16.75 11.5 16.75 C 11.37 16.75 11.239375 16.749067 11.109375 16.789062 L 9.5 13.539062 C 9.9599995 13.089065 10.25 12.459997 10.25 11.75 C 10.25 11.040003 9.9599995 10.410935 9.5 9.9609375 L 11.109375 6.7109375 C 11.239375 6.7509375 11.37 6.75 11.5 6.75 C 11.63 6.75 11.760625 6.750938 11.890625 6.7109375 L 13.5 9.9609375 C 13.05 10.410935 12.75 11.050003 12.75 11.75 C 12.75 12.912876 13.547052 13.886975 14.623047 14.166016 A 5.7444043 5.5506458 0 0 1 17.519531 12.789062 C 17.664055 12.474356 17.75 12.123947 17.75 11.75 C 17.75 10.370003 16.629997 9.25 15.25 9.25 C 15.12 9.25 14.999375 9.249062 14.859375 9.2890625 L 13.230469 6.0390625 C 13.710466 5.5890632 14 4.9599979 14 4.25 C 14 2.8700042 12.879997 1.75 11.5 1.75 z M 17.5 14.25 L 17.5 17.25 L 14.5 17.25 L 14.5 19.25 L 17.5 19.25 L 17.5 22.25 L 19.5 22.25 L 19.5 19.25 L 22.5 19.25 L 22.5 17.25 L 19.5 17.25 L 19.5 14.25 L 17.5 14.25 z " />
</svg>
