<?xml version="1.0" encoding="UTF-8" standalone="no"?>
<svg
   viewBox="0 0 24 24"
   version="1.1"
   xmlns="http://www.w3.org/2000/svg"
   xmlns:svg="http://www.w3.org/2000/svg">
  <path
     d="M 9.421875 1.9980469 C 8.9929986 2.0016295 8.5921872 2.2653133 8.4296875 2.6796875 L 6 9 L 18 9 L 15.560547 2.6796875 L 15.529297 2.6308594 C 15.364297 2.26336 15.008592 2.024375 14.617188 2 C 14.486719 1.991875 14.353203 2.0082814 14.220703 2.0507812 L 12 2.7890625 L 9.7695312 2.0507812 L 9.7207031 2.0390625 C 9.6213283 2.0109375 9.5208465 1.9972201 9.421875 1.9980469 z M 2 10.5 L 2 12 L 22 12 L 22 10.5 L 2 10.5 z M 6.9394531 13 C 4.7694575 13 3 14.790004 3 17 C 3 19.209996 4.7694575 21 6.9394531 21 C 8.9994491 21 10.679844 19.380308 10.839844 17.320312 C 11.179842 17.080314 12.070158 16.629844 13.160156 17.339844 C 13.306652 19.008265 14.434068 20.385042 15.958984 20.839844 L 15.958984 19.632812 C 14.951458 19.197782 14.25 18.183421 14.25 17 C 14.25 16.79129 14.272997 16.58856 14.314453 16.392578 L 13.478516 15.380859 C 13.378323 15.610556 13.296666 15.849899 13.240234 16.099609 C 12.290236 15.689611 11.419764 15.799844 10.759766 16.089844 C 10.349766 14.309848 8.7894495 13 6.9394531 13 z M 15.873047 13.126953 C 15.073049 13.126953 14.572266 14.126564 15.072266 14.726562 L 17.873047 18.126953 L 17.873047 21.126953 L 19.673828 22.896484 C 20.173828 23.396484 20.873047 22.996243 20.873047 22.40625 L 20.873047 18.126953 L 23.673828 14.726562 C 24.173828 14.026564 23.673045 13.126953 22.873047 13.126953 L 15.873047 13.126953 z M 6.9394531 14.140625 C 8.4994501 14.140625 9.75 15.420004 9.75 17 C 9.75 18.579996 8.4994501 19.859375 6.9394531 19.859375 C 5.3794563 19.859375 4.1308594 18.579996 4.1308594 17 C 4.1308594 15.420004 5.3894563 14.140625 6.9394531 14.140625 z " />
</svg>
