<svg class="gridItem__media" width="1283.2" height="951.75" version="1.1" viewBox="0 0 1283.2 951.75" xml:space="preserve" xmlns="http://www.w3.org/2000/svg"> 
<path d="m47.606 948.38-47.4-581.53c-1.207-14.81 2.91-29.564 11.61-41.61l246.1-299.39c6.329-8.756 14.822-15.719 24.648-20.208 9.827-4.489 20.651-6.35 31.412-5.402l712.11 14.89c13.11 0.15 25.83 4.479 36.32 12.359 10.48 7.879 18.17 18.897 21.96 31.451 0.68 2.182 1.47 4.329 2.37 6.43l194.47 453.09c2.74 10.537 2.67 21.608-0.2 32.11l-109 399.31z" fill="#f4f4f4"/>
<path d="m516.58 488.54-61.37-96.49-65.65-37.61-27.64 8.18-46.65 54c-55.28 35.68-211.51 162.15-292.65 228.5l13.19 161.26 792.63 8.42z" fill="#fff"/>
<path d="m376.63 417.4 24.19-11.45 10.37 26.98-34.56 50.7 34.56-31.07-18.14 81.77 31.09 67.86-50.96 41.7 42.33-13.08-0.87 37.61 47.52 32.71v35.16l33.23 74.96 333.05 3.53-311.86-326.24-61.34-96.49-65.65-37.61-27.64 8.18 29.37 26.98z" opacity=".08"/>
<path d="m1043.2 434.17-74.17-123.27-79.4-48.06-33.43 10.45-56.412 68.95c-91.94 62.68-448.19 372.73-448.19 372.73l44.93 124.55 802.3 9 50.84-186.14z" fill="#fff"/>
<path d="m1043.2 434.17-74.17-123.27-79.4-48.06-33.43 10.45 35.52 34.47-17.76 35.52 29.25-14.62 12.54 34.47-41.79 64.78 41.79-39.7-21.94 104.47 37.61 86.71-61.64 53.28 51.19-16.72-1.04 48.06-8.44 41.79 28.24 44.92 11.95 95.77 247.15 2.04 50.8-186.19z" opacity=".08"/>
<path d="m355.23 609.89-4.34 149.71 15.84-0.38-6.5-149.45z" fill="#3f4249"/>
<path d="m357.36 609.87 1.11 149.44 8.35-0.1-6.68-149.44z" opacity=".3"/>
<path class="change-color-in-svg" d="m412.83 731.25-13.78-34.71h4.66l-13.98-35.24 7.84 0.01-12.89-32.46 6.74 0.01-32.33-81.43-29.16 81.37h6.3l-11.63 32.44 6.41 0.01-12.62 35.21 4.46 0.01-12.44 34.69z" fill="#008ee5"/>
<path d="m412.83 731.25-13.78-34.71h4.66l-13.98-35.24 7.84 0.01-12.89-32.46 6.74 0.01-32.33-81.43-29.16 81.37h6.3l-11.63 32.44 6.41 0.01-12.62 35.21 4.46 0.01-12.44 34.69z" fill="#fff" opacity=".4"/>
<path d="m412.83 731.25-13.78-34.71h4.66l-13.99-35.24 7.85 0.01-12.89-32.46 6.74 0.01-32.19-81.09-0.17 183.43z" fill="#fff" opacity=".2"/>
<path d="m412.83 731.25-13.78-34.72h4.67l-14-35.24h7.84l-12.89-32.46h6.74l-10.66-26.86c0.24 4.26 0.38 8.6 0.38 13 0 53.34-19.06 96.57-42.46 96.55-6.43 0-12.52-3.29-18-9.14l-10.3 28.74z" opacity=".2"/>
<path d="m801.89 618.46-3.31 113.84 12.05-0.29-4.94-113.64z" fill="#3f4249"/>
<path d="m803.51 618.44 0.84 113.64 6.35-0.08-5.08-113.63z" opacity=".3"/>
<path class="change-color-in-svg" d="m845.69 710.75-10.478-26.4h3.54l-10.63-26.8 5.96 0.01-9.8-24.68h5.12l-24.57-61.92-22.19 61.88h4.8l-8.85 24.67h4.88l-9.6 26.78h3.39l-9.45 26.38z" fill="#008ee5"/>
<path d="m845.69 710.75-10.478-26.4h3.54l-10.63-26.8 5.96 0.01-9.8-24.68h5.12l-24.57-61.92-22.19 61.88h4.8l-8.85 24.67h4.88l-9.6 26.78h3.39l-9.45 26.38z" fill="#fff" opacity=".4"/>
<path d="m845.69 710.75-10.48-26.4h3.54l-10.63-26.8 5.96 0.01-9.8-24.68h5.12l-24.47-61.66-0.13 139.49z" fill="#fff" opacity=".2"/>
<path d="m845.69 710.74-10.479-26.36h3.54l-10.63-26.8h6l-9.8-24.69h5.13l-8.11-20.43c0.18 3.24 0.29 6.54 0.29 9.9 0 40.57-14.5 73.44-32.29 73.42-4.89 0-9.52-2.5-13.66-6.95l-7.83 21.85z" opacity=".2"/>
<path d="m860.25 636.35-3.3 113.84 12.05-0.29-4.94-113.64z" fill="#3f4249"/>
<path d="m861.88 636.33 0.84 113.64 6.34-0.08-5.07-113.64z" opacity=".3"/>
<path class="change-color-in-svg" d="m904.05 728.63-10.47-26.4 3.54 0.01-10.64-26.8 5.97 0.01-9.8-24.69 5.12 0.01-24.58-61.92-22.179 61.87 4.789 0.01-8.839 24.66 4.879 0.01-9.599 26.77 3.39 0.01-9.46 26.38z" fill="#008ee5"/>
<path d="m904.05 728.63-10.47-26.4 3.54 0.01-10.64-26.8 5.97 0.01-9.8-24.69 5.12 0.01-24.58-61.92-22.179 61.87 4.789 0.01-8.839 24.66 4.879 0.01-9.599 26.77 3.39 0.01-9.46 26.38z" fill="#fff" opacity=".4"/>
<path d="m904.05 728.63-10.48-26.4 3.55 0.01-10.64-26.8 5.96 0.01-9.79-24.69 5.12 0.01-24.48-61.66-0.13 139.48z" fill="#fff" opacity=".2"/>
<path d="m904.06 728.63-10.48-26.4h3.54l-10.63-26.79h6l-9.8-24.68h5.12l-8.15-20.38c0.19 3.24 0.3 6.54 0.29 9.9 0 40.56-14.49 73.43-32.28 73.42-4.89 0-9.52-2.51-13.66-6.95l-7.8 21.81z" opacity=".2"/>
<path d="m1011.8 651.42-4.67 160.9 17.02-0.41-6.98-160.62z" fill="#3f4249"/>
<path d="m1014.1 651.39 1.2 160.62 8.96-0.11-7.17-160.62z" opacity=".3"/>
<path class="change-color-in-svg" d="m1073.7 781.85-14.82-37.31h5.01l-15.03-37.87 8.43 0.01-13.85-34.89 7.24 0.01-34.74-87.52-31.35 87.46h6.77l-12.49 34.87h6.89l-13.57 37.85h4.79l-13.36 37.29z" fill="#008ee5"/>
<path d="m1073.7 781.85-14.82-37.31h5.01l-15.03-37.87 8.43 0.01-13.85-34.89 7.24 0.01-34.74-87.52-31.35 87.46h6.77l-12.49 34.87h6.89l-13.57 37.85h4.79l-13.36 37.29z" fill="#fff" opacity=".4"/>
<path d="m1073.7 781.85-14.81-37.31h5.01l-15.03-37.87 8.43 0.01-13.85-34.89 7.24 0.01-34.6-87.15-0.18 197.15z" fill="#fff" opacity=".2"/>
<path d="m1073.7 781.85-14.81-37.31h5l-15-37.87h8.42l-13.85-34.89h7.24l-11.49-28.86c0.27 4.58 0.42 9.25 0.41 14-0.05 57.33-20.48 103.79-45.63 103.77-6.91 0-13.45-3.54-19.31-9.82l-11.07 30.88z" opacity=".2"/>
<path d="m31.566 730.58s69.13-40.2 135.56-27.82l-135.06 45.28z" opacity=".08"/>
<path d="m551.5 783.5s-203.53-30.67-324.47-72c-65.24-22.32-136.47-12.5-192.48 27.71l-3 2.17 11.29 148.75 508.37-12.27z" fill="#fff"/>
<path d="m161.21 699.84-21.61 0.63c61.12 0.37 61.09 26.43 54.75 43.15-2.7 6.879-7.015 13.008-12.58 17.87-21.3 19.07 4.22 29.27 23.73 34 8.854 2.092 17.904 3.245 27 3.44 65 1.66 58.9 21.54 58.9 21.54-8.18 50-233.58 62.25-249.07 63l0.54 6.64 508.34-12.25 0.28-94.36s-203.53-30.67-324.47-72c-21.201-7.269-43.402-11.203-65.81-11.66z" opacity=".08"/>
<path d="m125.93 727.67-4.67 160.9 17.02-0.41-6.98-160.62z" fill="#3f4249"/>
<path d="m128.22 727.65 1.2 160.61 8.96-0.11-7.17-160.61z" opacity=".3"/>
<path class="change-color-in-svg" d="m187.84 858.11-14.81-37.32 5.01 0.01-15.04-37.88 8.43 0.01-13.85-34.89 7.24 0.01-34.74-87.52-31.35 87.46 6.77 0.01-12.49 34.86 6.89 0.01-13.57 37.84 4.79 0.01-13.36 37.28z" fill="#008ee5"/>
<path d="m187.84 858.11-14.81-37.32 5.01 0.01-15.04-37.88 8.43 0.01-13.85-34.89 7.24 0.01-34.74-87.52-31.35 87.46 6.77 0.01-12.49 34.86 6.89 0.01-13.57 37.84 4.79 0.01-13.36 37.28z" fill="#fff" opacity=".4"/>
<path d="m187.83 858.11-14.81-37.32 5.01 0.01-15.03-37.88 8.43 0.01-13.85-34.89 7.24 0.01-34.6-87.15-0.18 197.15z" fill="#fff" opacity=".2"/>
<path d="m187.84 858.1-14.81-37.31h5l-15-37.87h8.42l-13.85-34.89h7.25l-11.47-28.88c0.27 4.58 0.42 9.25 0.41 14-0.05 57.33-20.48 103.79-45.63 103.77-6.91 0-13.45-3.54-19.31-9.82l-11.07 30.88z" opacity=".2"/>
<path d="m226.44 620.57-7.32 252 26.67-0.65-10.93-251.56z" fill="#3f4249"/>
<path d="m230.03 620.53 1.87 251.55 14.04-0.17-11.23-251.55z" opacity=".3"/>
<path class="change-color-in-svg" d="m323.4 824.85-23.2-58.44 7.85 0.01-23.54-59.31 13.19 0.01-21.69-54.64 11.34 0.01-54.41-137.07-49.1 136.97 10.61 0.01-19.57 54.6 10.79 0.01-21.25 59.28h7.51l-20.93 58.4z" fill="#008ee5"/>
<path d="m323.4 824.85-23.2-58.44 7.85 0.01-23.54-59.31 13.19 0.01-21.69-54.64 11.34 0.01-54.41-137.07-49.1 136.97 10.61 0.01-19.57 54.6 10.79 0.01-21.25 59.28h7.51l-20.93 58.4z" fill="#fff" opacity=".4"/>
<path d="m323.39 824.85-23.19-58.44 7.84 0.01-23.54-59.31 13.2 0.01-21.69-54.64 11.34 0.01-54.18-136.5-0.29 308.78z" fill="#fff" opacity=".2"/>
<path d="m323.4 824.85-23.19-58.47h7.85l-23.55-59.28h13.2l-21.69-54.64h11.34l-17.95-45.2c0.41 7.17 0.65 14.48 0.64 21.92-0.09 89.8-32.08 162.56-71.47 162.52-10.82 0-21.07-5.54-30.24-15.38l-17.34 48.37z" opacity=".2"/>
<path d="m947.55 803.49s51.61 3.16 113-7.53c70.24-12.25 151.93-37.92 161-26.36l-33 120.5-169.45-9.42z" fill="#fff"/>
<path d="m1221.5 769.6-32.11 117.41-0.89 3.08-153.18-8.51-18.93-3.82-32-34.52 7.4-39.75s184.94 46 196.69 14.38c0.51-1.464 0.59-3.041 0.23-4.55-0.35-1.508-1.13-2.884-2.23-3.97-3.38-3.43-13.41-5.44-0.63-20.33 3.73-4.231 8.19-7.751 13.17-10.39 5.94-3.25 18.71-7.15 22.48-9.03z" opacity=".1"/>
<path d="m1093.4 638.1-6.4 220.35 23.32-0.57-9.56-219.97z" fill="#3f4249"/>
<path d="m1096.5 638.06 1.63 219.96 12.28-0.15-9.82-219.96z" opacity=".3"/>
<path class="change-color-in-svg" d="m1178.2 816.72-20.28-51.09h6.86l-20.59-51.87 11.54 0.01-18.96-47.77 9.91 0.01-47.57-119.86-42.94 119.77 9.28 0.01-17.12 47.74 9.44 0.01-18.58 51.83 6.56 0.01-18.3 51.06z" fill="#008ee5"/>
<path d="m1178.2 816.72-20.28-51.09h6.86l-20.59-51.87 11.54 0.01-18.96-47.77 9.91 0.01-47.57-119.86-42.94 119.77 9.28 0.01-17.12 47.74 9.44 0.01-18.58 51.83 6.56 0.01-18.3 51.06z" fill="#fff" opacity=".4"/>
<path d="m1178.2 816.72-20.29-51.09h6.87l-20.59-51.87 11.54 0.01-18.97-47.77 9.92 0.01-47.38-119.36-0.25 270z" fill="#fff" opacity=".2"/>
<path d="m1178.2 816.72-20.28-51.1h6.86l-20.58-51.86h11.54l-19-47.78h9.92l-15.7-39.54c0.36 6.27 0.57 12.66 0.56 19.17-0.07 78.51-28 142.14-62.49 142.11-9.47 0-18.42-4.85-26.45-13.45l-15.16 42.29z" opacity=".2"/>
<path d="m551.5 783.5s120.22-76 248.27-51.39z" opacity=".05"/>
<path d="m42.855 890.1s170.35-8.72 384.17-65.72c55.011-14.808 108.92-33.454 161.32-55.8 66.9-28.37 209.33-71 343.78 4.25 24.29 13.701 49.3 26.075 74.93 37.07 48.7 20.68 126.85 51.44 185.25 67.06l-20.71 71.54h-1124z" fill="#fff"/>
<path d="m1192.3 876.92c-58.4-15.62-136.55-46.38-185.25-67.06-25.63-10.995-50.64-23.37-74.93-37.07-56.66-31.7-114.74-42.47-168-42.2 0 0 149.32 7.92 99.301 55.59-5.73 5.396-12.74 9.25-20.36 11.2-25.201 6.58-90.621 25.6-64.201 39.44 2.857 1.479 5.933 2.492 9.11 3 23.08 3.9 158.25 28 103 49.31-1.59 0.62-3.2 1.14-4.84 1.62-21.55 6.3-199.26 57.73-256.3 57.73h541.81z" opacity=".05"/>
<path d="m318.51 948.28s105.18-41.66 182.34-18.36c18.131 5.36 36.664 9.26 55.42 11.66 34.22 4.57 76.43 10.17 56.42 7.36-12.5-1.76-291.93 1.08-291.93 1.08z" opacity=".05"/>
<path d="m1050.8 925.65c-7.45 3.41-17.7 5.49-28.45 6.51-18.1 1.72-43.25 9-67.25 16.3h216.52l14.12-48.95s-79.08 0.64-134.94 26.14z" fill="#fff"/>
<path d="m1127.3 931.3c-6.73 3.41-16 5.49-25.72 6.51-16.36 1.72-38.95 5.25-60.65 12.54l130.69-2 14.12-49s-7.94 6.45-58.44 31.95z" opacity=".08"/>
<path d="m159.07 929.38c6.74 3.4 16 5.49 25.72 6.51 16.36 1.71 39 5.25 60.66 12.53l-198 0.13-3.47-43.51s64.59-1.12 115.09 24.34z" opacity=".08"/>








































































<path d="m342.23 240.53c31.193 0 56.48-25.287 56.48-56.48s-25.287-56.48-56.48-56.48-56.48 25.287-56.48 56.48 25.287 56.48 56.48 56.48z" fill="#fff"/>
<path d="m1198.9 951.74h-1175.8c-0.349-0.03-0.675-0.19-0.912-0.45-0.238-0.26-0.369-0.59-0.369-0.95 0-0.35 0.131-0.68 0.369-0.94 0.237-0.26 0.563-0.42 0.912-0.45h1175.8c0.19-0.02 0.39 0.01 0.57 0.07s0.35 0.16 0.49 0.29c0.15 0.14 0.26 0.29 0.34 0.47s0.12 0.37 0.12 0.56c0 0.2-0.04 0.39-0.12 0.57s-0.19 0.33-0.34 0.47c-0.14 0.13-0.31 0.23-0.49 0.29s-0.38 0.09-0.57 0.07z" fill="#b2b6bb"/>
</svg>
